<?xml version="1.0" standalone="no"?>
<!DOCTYPE svg PUBLIC "-//W3C//DTD SVG 20010904//EN"
 "http://www.w3.org/TR/2001/REC-SVG-20010904/DTD/svg10.dtd">
<svg version="1.0" xmlns="http://www.w3.org/2000/svg"
 width="512.000000pt" height="512.000000pt" viewBox="0 0 512.000000 512.000000"
 preserveAspectRatio="xMidYMid meet">
<metadata>
Created by potrace 1.11, written by Peter Selinger 2001-2013
</metadata>
<g transform="translate(0.000000,512.000000) scale(0.100000,-0.100000)"
fill="#000000" stroke="none">
<path d="M2500 4163 c-24 -17 -131 -122 -159 -157 -13 -15 -4 -26 82 -111 85
-84 99 -94 126 -91 41 5 102 -27 124 -63 9 -16 17 -49 17 -73 0 -42 4 -47 93
-133 82 -80 96 -90 124 -87 124 12 187 -158 86 -232 -38 -28 -101 -31 -140 -7
-47 30 -66 64 -65 119 2 47 0 49 -83 132 l-85 85 0 -233 c0 -196 2 -234 15
-238 26 -10 55 -69 55 -113 0 -78 -89 -142 -165 -118 -102 33 -124 159 -39
226 l25 20 1 230 0 230 -30 26 c-34 29 -54 77 -50 122 3 27 -9 43 -86 122 -49
50 -92 91 -97 91 -11 0 -516 -506 -529 -530 -16 -30 -12 -85 9 -111 10 -13
229 -233 485 -489 447 -446 467 -465 503 -465 80 -1 138 -56 137 -130 0 -43 3
-48 90 -134 85 -84 94 -90 136 -92 105 -6 163 -110 110 -197 -21 -34 -72 -62
-112 -62 -69 0 -133 74 -124 144 4 39 2 43 -77 123 -45 45 -84 83 -87 83 -3 0
-5 -102 -5 -227 l0 -228 27 -23 c44 -37 56 -109 28 -162 -17 -32 -70 -60 -113
-60 -76 0 -127 54 -127 133 0 38 6 50 38 83 l37 39 1 233 c0 127 -2 232 -5
232 -3 0 -16 8 -29 18 -30 23 -52 87 -42 122 7 24 -25 59 -474 507 -327 327
-489 482 -506 485 -50 8 -85 -12 -172 -99 l-87 -87 98 -96 c88 -87 101 -97
128 -93 71 11 137 -51 139 -130 0 -47 3 -50 90 -137 81 -82 92 -89 126 -88
110 4 175 -104 119 -196 -70 -113 -247 -55 -236 78 3 39 0 44 -78 124 -45 45
-84 82 -87 82 -3 0 -5 -101 -5 -224 l1 -223 31 -32 c84 -83 25 -221 -94 -221
-63 0 -123 64 -123 132 0 38 30 92 59 108 20 10 21 19 21 242 l0 231 -37 32
c-35 30 -38 37 -40 91 l-1 58 -93 93 -93 94 -259 -258 c-142 -142 -262 -265
-267 -274 -17 -30 -19 -72 -5 -98 18 -34 765 -780 799 -798 55 -29 88 -10 222
123 68 68 126 124 128 124 2 0 169 -165 371 -367 202 -203 379 -376 394 -385
30 -21 73 -23 104 -6 12 6 195 184 406 395 370 370 384 385 388 427 3 24 1 52
-5 62 -6 10 -182 190 -391 399 l-381 381 39 36 38 37 384 -383 c409 -409 410
-409 476 -381 34 14 778 757 799 797 15 28 13 63 -4 95 -18 32 -766 774 -795
790 -51 26 -85 11 -180 -83 -48 -47 -87 -88 -87 -92 0 -4 42 -49 93 -100 85
-85 95 -92 132 -92 77 0 140 -64 133 -136 -2 -32 5 -42 91 -129 70 -70 99 -92
114 -89 40 7 96 -16 122 -50 46 -60 31 -148 -31 -187 -42 -26 -79 -27 -128 -4
-46 22 -78 82 -70 133 5 30 -1 39 -80 118 l-86 86 0 -44 c-1 -23 -1 -126 -1
-227 0 -181 1 -184 24 -210 50 -54 59 -98 31 -157 -27 -56 -93 -82 -154 -62
-64 20 -102 90 -85 155 3 15 22 41 41 59 l34 33 0 226 0 227 -34 34 c-37 37
-51 78 -42 122 6 25 -30 63 -467 498 -259 259 -482 477 -494 483 -31 16 -75
14 -103 -6z"/>
</g>
</svg>
