<?xml version="1.0" encoding="UTF-8" standalone="no"?>
<!-- Generator: Adobe Illustrator 16.0.0, SVG Export Plug-In . SVG Version: 6.00 Build 0)  -->

<svg
   xmlns:dc="http://purl.org/dc/elements/1.1/"
   xmlns:cc="http://creativecommons.org/ns#"
   xmlns:rdf="http://www.w3.org/1999/02/22-rdf-syntax-ns#"
   xmlns:svg="http://www.w3.org/2000/svg"
   xmlns="http://www.w3.org/2000/svg"
   xmlns:sodipodi="http://sodipodi.sourceforge.net/DTD/sodipodi-0.dtd"
   xmlns:inkscape="http://www.inkscape.org/namespaces/inkscape"
   version="1.1"
   id="Layer_1"
   x="0px"
   y="0px"
   width="97px"
   height="97px"
   viewBox="0 0 97 97"
   enable-background="new 0 0 97 97"
   xml:space="preserve"
   sodipodi:docname="octocat.svg"
   inkscape:version="0.92.4 (unknown)"
   inkscape:export-filename="/home/friedger/_repos/github/friedger/react-github/promo/gitix.png"
   inkscape:export-xdpi="506.72"
   inkscape:export-ydpi="506.72"><metadata
   id="metadata4576"><rdf:RDF><cc:Work
       rdf:about=""><dc:format>image/svg+xml</dc:format><dc:type
         rdf:resource="http://purl.org/dc/dcmitype/StillImage" /><dc:title></dc:title></cc:Work></rdf:RDF></metadata><defs
   id="defs4574">
	
</defs><sodipodi:namedview
   pagecolor="#ffffff"
   bordercolor="#666666"
   borderopacity="1"
   objecttolerance="10"
   gridtolerance="10"
   guidetolerance="10"
   inkscape:pageopacity="0"
   inkscape:pageshadow="2"
   inkscape:window-width="2740"
   inkscape:window-height="1491"
   id="namedview4572"
   showgrid="false"
   inkscape:zoom="9.0465929"
   inkscape:cx="48.5"
   inkscape:cy="52.08577"
   inkscape:window-x="140"
   inkscape:window-y="55"
   inkscape:window-maximized="1"
   inkscape:current-layer="Layer_1" />

<path
   style="fill:#f05133;stroke-width:0.35097215"
   inkscape:connector-curvature="0"
   id="path4567-3"
   d="M 45.725843,50.983403 31.645191,36.903453 c -0.810745,-0.811097 -2.125838,-0.811097 -2.937286,0 l -2.923597,2.9243 3.708722,3.708723 c 0.861988,-0.291307 1.850325,-0.09582 2.537178,0.591388 0.691064,0.691415 0.884801,1.688176 0.586123,2.553322 l 3.575003,3.574652 c 0.865146,-0.298327 1.862609,-0.105292 2.553322,0.586474 0.965174,0.965173 0.965174,2.529105 0,3.494981 -0.965875,0.965524 -2.529807,0.965524 -3.496033,0 -0.725811,-0.726513 -0.905509,-1.793468 -0.537339,-2.687745 l -3.334235,-3.333885 v 8.773251 c 0.235151,0.116523 0.457316,0.271653 0.653159,0.467495 0.965173,0.965174 0.965173,2.529106 0,3.495332 -0.965174,0.964822 -2.530158,0.964822 -3.49463,0 -0.965173,-0.966577 -0.965173,-2.530509 0,-3.495332 0.238661,-0.23831 0.514876,-0.418709 0.809693,-0.539444 v -8.855027 c -0.294817,-0.120735 -0.57033,-0.29938 -0.809693,-0.539445 -0.731075,-0.730724 -0.906912,-1.803996 -0.532074,-2.701783 l -3.656076,-3.656779 -9.655246,9.654191 c -0.811096,0.811799 -0.811096,2.126891 0,2.937988 l 14.081355,14.080303 c 0.810746,0.81109 2.125488,0.81109 2.937286,0 l 14.01502,-14.015022 c 0.811097,-0.811097 0.811097,-2.126892 0,-2.937988 z" /><path
   style="fill:#f05133;stroke-width:0.35097215"
   inkscape:connector-curvature="0"
   id="path4567-3-6"
   d="M 67.104258,60.702875 53.023606,46.622925 c -0.810745,-0.811097 -2.125838,-0.811097 -2.937286,0 l -2.923597,2.9243 3.708722,3.708723 c 0.861988,-0.291307 1.850325,-0.09582 2.537178,0.591388 0.691064,0.691415 0.884801,1.688176 0.586123,2.553322 l 3.575003,3.574652 c 0.865146,-0.298327 1.862609,-0.105292 2.553322,0.586474 0.965174,0.965173 0.965174,2.529105 0,3.494981 -0.965875,0.965524 -2.529807,0.965524 -3.496033,0 -0.725811,-0.726513 -0.905509,-1.793468 -0.537339,-2.687745 l -3.334235,-3.333885 v 8.773251 c 0.235151,0.116523 0.457316,0.271653 0.653159,0.467495 0.965173,0.965174 0.965173,2.529106 0,3.495332 -0.965174,0.964822 -2.530158,0.964822 -3.49463,0 -0.965173,-0.966577 -0.965173,-2.530509 0,-3.495332 0.238661,-0.23831 0.514876,-0.418709 0.809693,-0.539444 V 57.88141 c -0.294817,-0.120735 -0.57033,-0.29938 -0.809693,-0.539445 -0.731075,-0.730724 -0.906912,-1.803996 -0.532074,-2.701783 l -3.656076,-3.656779 -9.655244,9.654191 c -0.811096,0.811799 -0.811096,2.126891 0,2.937988 l 14.081353,14.080303 c 0.810746,0.81109 2.125488,0.81109 2.937286,0 l 14.01502,-14.015022 c 0.811097,-0.811097 0.811097,-2.126892 0,-2.937988 z" /><path
   style="fill:#f05133;stroke-width:0.35097215"
   inkscape:connector-curvature="0"
   id="path4567-3-7"
   d="M 63.977747,32.486115 49.897095,18.406165 c -0.810745,-0.811097 -2.125838,-0.811097 -2.937286,0 l -2.923597,2.9243 3.708722,3.708723 c 0.861988,-0.291307 1.850325,-0.09582 2.537178,0.591388 0.691064,0.691415 0.884801,1.688176 0.586123,2.553322 l 3.575003,3.574652 c 0.865146,-0.298327 1.862609,-0.105292 2.553322,0.586474 0.965174,0.965173 0.965174,2.529105 0,3.494981 -0.965875,0.965524 -2.529807,0.965524 -3.496033,0 -0.725811,-0.726513 -0.905509,-1.793468 -0.537339,-2.687745 l -3.334235,-3.333885 v 8.773251 c 0.235151,0.116523 0.457316,0.271653 0.653159,0.467495 0.965173,0.965174 0.965173,2.529106 0,3.495332 -0.965174,0.964822 -2.530158,0.964822 -3.49463,0 -0.965173,-0.966577 -0.965173,-2.530509 0,-3.495332 0.238661,-0.23831 0.514876,-0.418709 0.809693,-0.539444 V 29.66465 c -0.294817,-0.120735 -0.57033,-0.29938 -0.809693,-0.539445 -0.731075,-0.730724 -0.906912,-1.803996 -0.532074,-2.701783 l -3.656076,-3.656779 -9.655245,9.654191 c -0.811096,0.811799 -0.811096,2.126891 0,2.937988 l 14.081354,14.080303 c 0.810746,0.81109 2.125488,0.81109 2.937286,0 l 14.01502,-14.015022 c 0.811097,-0.811097 0.811097,-2.126892 0,-2.937988 z" /><path
   style="fill:#f05133;stroke-width:0.35097215"
   inkscape:connector-curvature="0"
   id="path4567-3-7-5"
   d="M 85.356162,42.205587 71.27551,28.125637 c -0.810745,-0.811097 -2.125838,-0.811097 -2.937286,0 l -2.923597,2.9243 3.708722,3.708723 c 0.861988,-0.291307 1.850325,-0.09582 2.537178,0.591388 0.691064,0.691415 0.884801,1.688176 0.586123,2.553322 l 3.575003,3.574652 c 0.865146,-0.298327 1.862609,-0.105292 2.553322,0.586474 0.965174,0.965173 0.965174,2.529105 0,3.494981 -0.965875,0.965524 -2.529807,0.965524 -3.496033,0 -0.725811,-0.726513 -0.905509,-1.793468 -0.537339,-2.687745 l -3.334235,-3.333885 v 8.773251 c 0.235151,0.116523 0.457316,0.271653 0.653159,0.467495 0.965173,0.965174 0.965173,2.529106 0,3.495332 -0.965174,0.964822 -2.530158,0.964822 -3.49463,0 -0.965173,-0.966577 -0.965173,-2.530509 0,-3.495332 0.238661,-0.23831 0.514876,-0.418709 0.809693,-0.539444 v -8.855027 c -0.294817,-0.120735 -0.57033,-0.29938 -0.809693,-0.539445 -0.731075,-0.730724 -0.906912,-1.803996 -0.532074,-2.701783 l -3.656076,-3.656779 -9.655245,9.654191 c -0.811096,0.811799 -0.811096,2.126891 0,2.937988 l 14.081354,14.080303 c 0.810746,0.81109 2.125488,0.81109 2.937286,0 l 14.01502,-14.015022 c 0.811097,-0.811097 0.811097,-2.126892 0,-2.937988 z" /></svg>